<svg xmlns="http://www.w3.org/2000/svg" version="1.1" xmlns:xlink="http://www.w3.org/1999/xlink" xmlns:svgjs="http://svgjs.dev/svgjs" width="100%" height="100%" viewBox="0 0 1000 600"><rect width="1000" height="600" x="0" y="0" fill="#00000"/><g><circle r="166.66666666666666" cx="381.2780100504557" cy="403.5001883600901" fill="#2a2a2a" transform="matrix(0.5824485058261915,0,0,0.5824485058261915,0,64.98194489195959)"/><path d="M337.67069086774455 478.50017894260617L337.67069086774455 478.50017894260617Q322.53545345939096 478.50017894260617 310.10499231792943 473.5222396429005Q297.6745311764679 468.54430034319483 288.7832985544503 459.02003497786205Q279.86329171682746 449.4957696125293 275.00044927954275 435.51150082838507Q270.13760684225804 421.52723204424086 270.13760684225804 403.5145730753637L270.13760684225804 403.5145730753637Q270.13760684225804 385.4731398908814 275.6047078072527 371.4888711067372Q281.10058298785253 357.50460232259303 290.42342884394867 347.9803369572602Q299.74627470004486 338.4560715919274 312.17673584150634 333.47813229222174Q324.6071969829679 328.50019299251613 338.70656262953304 328.50019299251613L338.70656262953304 328.50019299251613Q347.5977952515506 328.50019299251613 354.76257493725416 329.7374842635412Q361.8985804073524 331.00354975017154 367.19303607871564 332.64368003966996Q372.45871753447364 334.3125845447736 375.7965265446809 335.95271483427194Q379.10556133928293 337.6216193393756 380.342852610308 338.4560715919274L380.342852610308 338.4560715919274L374.5304610580506 355.0300197805428Q372.68891125931555 353.79272850951764 369.14968273987165 352.32524351365066Q365.63922843603297 350.88653273338895 361.17922501722154 349.4190477375219Q356.7192215984101 347.9803369572602 351.4535401426521 347.05956205789266Q346.1590844712889 346.1100129429199 340.77830615310995 346.1100129429199L340.77830615310995 346.1100129429199Q329.38371677343684 346.1100129429199 320.26229042657735 350.0520804808371Q311.14086407971786 353.9941480187543 304.7242139997505 361.44666986051016Q298.3075639197831 368.899191702266 294.8834322627601 379.57442569180824Q291.45930060573716 390.2496596813504 291.45930060573716 403.5145730753637L291.45930060573716 403.5145730753637Q291.45930060573716 416.34787323529855 294.4805932442868 426.9080103624198Q297.47311166723125 437.468147489541 303.4869227287254 445.03576619371785Q309.5007337902195 452.6033848978946 318.50706327465804 456.74687194504844Q327.51339275909663 460.8903589922023 339.5410148820848 460.8903589922023L339.5410148820848 460.8903589922023Q353.4101868038081 460.8903589922023 362.53161315066757 457.98416321607357Q371.65303949752706 455.07796743994487 376.19936556315423 452.8048044071313L376.19936556315423 452.8048044071313L381.37872437209654 469.3787525957467Q379.94001359183477 470.41462435753516 376.19936556315423 471.9684320002178Q372.45871753447364 473.5222396429005 366.87651970705804 474.9897246387675Q361.2943218796425 476.4284354190292 353.81302582228136 477.4643071808177Q346.36050398052555 478.50017894260617 337.67069086774455 478.50017894260617ZM439.79038205072357 461.09177850143897L439.79038205072357 461.09177850143897Q471.29814813845593 461.09177850143897 471.29814813845593 439.53989101311794L471.29814813845593 439.53989101311794Q471.29814813845593 432.9218214239139 468.50704922474813 428.26039849586584Q465.68717609543506 423.5989755678178 460.93943052057125 420.1748439107948Q456.1629107301022 416.75071225377184 450.0627770217924 414.27612971172164Q443.9338690978774 411.80154716967144 437.11437999943666 409.29819041201597L437.11437999943666 409.29819041201597Q429.2302449236023 406.6221883607291 422.1805621003198 403.1980567037062Q415.1596534926424 399.7739250466832 409.9802946837001 395.1125021186351Q404.8009358747578 390.45107919058705 401.77964323620813 384.03442911061967Q398.7871248132637 377.61777903065223 398.7871248132637 368.49635268379274L398.7871248132637 368.49635268379274Q398.7871248132637 349.6492414623638 411.6204249731985 339.06033011963734Q424.48249934873854 328.50019299251613 447.04148438324273 328.50019299251613L447.04148438324273 328.50019299251613Q460.10497826801947 328.50019299251613 470.78021225756163 331.2912919062239Q481.45544624710385 334.11116503553694 486.40461133120425 337.420199830139L486.40461133120425 337.420199830139L479.98796125123687 353.79272850951764Q475.64305469484634 351.0879522426256 467.0395642288811 348.49827283815443Q458.43607376291584 345.9085934336833 447.04148438324273 345.9085934336833L447.04148438324273 345.9085934336833Q441.2578670465905 345.9085934336833 436.2799277468849 347.1458847047084Q431.30198844717927 348.3831759757335 427.5901146341039 350.88653273338895Q423.84946660542334 353.36111527543915 421.66262621942553 357.18808595093543Q419.5045600490329 361.04383084203687 419.5045600490329 366.2231896509792L419.5045600490329 366.2231896509792Q419.5045600490329 372.0068069876314 421.7777230818465 375.9488745255486Q424.05088611466 379.89094206346584 428.1943731618138 382.88346048641023Q432.33786020896764 385.90475312495994 437.83373538956755 388.37933566701014Q443.32961057016746 390.85391820906034 449.9476801593715 393.3572749667158L449.9476801593715 393.3572749667158Q459.2705260154676 397.0691487797911 467.0395642288811 400.8097968084716Q474.80860244229456 404.5504448371522 480.5058971321311 409.7298036460945Q486.20319182196755 414.9091624550368 489.31080710733295 422.0451679251351Q492.41842239269835 429.1811733952334 492.41842239269835 439.3384715038813L492.41842239269835 439.3384715038813Q492.41842239269835 458.1855827253102 478.6355731177908 468.3428808339582Q464.88149805848843 478.50017894260617 439.79038205072357 478.50017894260617L439.79038205072357 478.50017894260617Q431.30198844717927 478.50017894260617 424.16598297708094 477.34921031839673Q417.00120329137746 476.22701590979256 411.41900546396187 474.6732082671099Q405.83680763654627 473.1194006244272 401.77964323620813 471.36417347250784Q397.75125305147526 469.5801721049833 395.47809001866165 468.3428808339582L395.47809001866165 468.3428808339582L401.46312686455053 451.76893264534283Q406.23964665501956 454.47370891223494 415.965331529589 457.7827437068369Q425.71979061976367 461.09177850143897 439.79038205072357 461.09177850143897Z " fill="#ff5900" transform="matrix(0.5824485058261915,0,0,0.5824485058261915,0,64.98194489195959)"/><path d="M693.0953968784156 478.5001650587406L693.0953968784156 478.5001650587406Q679.2411398708609 478.5001650587406 667.8627386783444 473.94353680340413Q656.484337485828 469.38690854806765 648.3456199661807 460.66873541213494Q640.1805635548842 451.95056227620216 635.7292908661452 439.14986093462113Q631.278018177406 426.3491595930401 631.278018177406 409.86101342055093L631.278018177406 409.86101342055093Q631.278018177406 393.3465283564125 636.2824075907813 380.54582701483145Q641.313135895806 367.7451256732504 649.8469367901934 359.02695253731764Q658.3807376845807 350.3087794013849 669.7591388770971 345.75215114604845Q681.1375400696136 341.19552289071197 694.043596977792 341.19552289071197L694.043596977792 341.19552289071197Q702.1823144974392 341.19552289071197 708.7406985181258 342.32809523163377Q715.272743647163 343.48700646420485 720.1190997106423 344.9883232882175Q724.9391168824721 346.5159790038794 727.994428313796 348.017295827892Q731.0234008534705 349.5449515435539 732.1559731943923 350.3087794013849L732.1559731943923 350.3087794013849L726.8355170812249 365.4799809914069Q725.1498280156669 364.3474086504851 721.9101443427976 363.0041251763685Q718.6967995615778 361.68718059390136 714.6142713559295 360.34389711978486Q710.5317431502812 359.02695253731764 705.7117259784513 358.18410800453864Q700.865369914972 357.31492458011036 695.9399971765448 357.31492458011036L695.9399971765448 357.31492458011036Q685.5097960834047 357.31492458011036 677.1603674305627 360.9233527360704Q668.8109387777208 364.5317808920305 662.9373659399172 371.3535538292105Q657.0637931021136 378.1753267663905 653.9294649958416 387.947055568297Q650.7951368895697 397.71878437020354 650.7951368895697 409.86101342055093L650.7951368895697 409.86101342055093Q650.7951368895697 421.60815909615826 653.5607205127508 431.27453233146736Q656.2999652442825 440.9409055667765 661.8047935989954 447.8680340705539Q667.3096219537082 454.7951625743313 675.5536950399528 458.5879629718367Q683.7977681261973 462.3807633693422 694.807424835623 462.3807633693422L694.807424835623 462.3807633693422Q707.5027706106066 462.3807633693422 715.8521992634486 459.7205353127585Q724.2016279162906 457.06030725617484 728.3631727968868 454.97953481587666L728.3631727968868 454.97953481587666L733.1041732937688 470.1507364058986Q731.7872287113015 471.09893650527505 728.3631727968868 472.5212366543396Q724.9391168824721 473.94353680340413 719.8293719024995 475.2868202775207Q714.7196269225268 476.60376485998785 707.8715150936974 477.55196495936417Q701.0497421565175 478.5001650587406 693.0953968784156 478.5001650587406ZM837.2218119836243 426.3491595930401L837.2218119836243 426.3491595930401Q837.2218119836243 438.09630526864737 833.7977560692095 447.5783062624111Q830.4000390464442 457.06030725617484 824.2367384004979 463.90841908500414Q818.0734377545514 470.7301920221842 809.539636860164 474.41763685309235Q801.0058359657767 478.13142057564977 790.9443793557274 478.13142057564977L790.9443793557274 478.13142057564977Q780.8829227456781 478.13142057564977 772.3491218512908 474.41763685309235Q763.8153209569034 470.7301920221842 757.652020310957 463.90841908500414Q751.4887196650106 457.06030725617484 748.0910026422453 447.5783062624111Q744.6669467278306 438.09630526864737 744.6669467278306 426.3491595930401L744.6669467278306 426.3491595930401Q744.6669467278306 414.78638615897825 748.0910026422453 405.19902959861713Q751.4887196650106 395.63801192990536 757.652020310957 388.789900101076Q763.8153209569034 381.968127163896 772.3491218512908 378.2806823329879Q780.8829227456781 374.5668986104304 790.9443793557274 374.5668986104304L790.9443793557274 374.5668986104304Q801.0058359657767 374.5668986104304 809.539636860164 378.2806823329879Q818.0734377545514 381.968127163896 824.2367384004979 388.789900101076Q830.4000390464442 395.63801192990536 833.7977560692095 405.19902959861713Q837.2218119836243 414.78638615897825 837.2218119836243 426.3491595930401ZM818.810926720733 426.3491595930401L818.810926720733 426.3491595930401Q818.810926720733 409.6503022873562 811.3306814923194 399.90491237709904Q803.8504362639059 390.13318357519256 790.9443793557274 390.13318357519256L790.9443793557274 390.13318357519256Q778.038322447549 390.13318357519256 770.5580772191354 399.90491237709904Q763.0778319907218 409.6503022873562 763.0778319907218 426.3491595930401L763.0778319907218 426.3491595930401Q763.0778319907218 443.048016898724 770.5580772191354 452.79340680898116Q778.038322447549 462.5651356108877 790.9443793557274 462.5651356108877L790.9443793557274 462.5651356108877Q803.8504362639059 462.5651356108877 811.3306814923194 452.79340680898116Q818.810926720733 443.048016898724 818.810926720733 426.3491595930401ZM925.7731657087177 460.2999909290441L925.7731657087177 397.9031566117489Q922.5598209274978 395.24292855516524 916.4755369564994 392.7934116317762Q910.4175918771504 390.317555816738 903.2007355652302 390.317555816738L903.2007355652302 390.317555816738Q895.6151347702191 390.317555816738 890.2156619821037 393.0568005482697Q884.8161891939883 395.8223841714508 881.3921332795736 400.64240134328065Q877.9944162568083 405.48875740675993 876.4667605411463 412.1261581023945Q874.9654437171338 418.7635587980291 874.9654437171338 426.3491595930401L874.9654437171338 426.3491595930401Q874.9654437171338 443.6011336233602 883.4992446115211 453.0041179421759Q892.0330455059085 462.3807633693422 906.256046996554 462.3807633693422L906.256046996554 462.3807633693422Q913.4465644168249 462.3807633693422 918.2929204803041 461.72229107810864Q923.112937652134 461.06381878687506 925.7731657087177 460.2999909290441L925.7731657087177 460.2999909290441ZM925.7731657087177 381.4150104392598L925.7731657087177 331.5291496554029L943.420223113778 328.5001771157284L943.420223113778 472.81096446248233Q937.3359391427796 474.5229924196897 927.8539381490159 476.235020376897Q918.3719371552522 477.920709442455 906.0453358633592 477.920709442455L906.0453358633592 477.920709442455Q894.6669346708429 477.920709442455 885.5800170518193 474.33862017814425Q876.4667605411463 470.7301920221842 870.0137320870572 464.0927913265496Q863.5870425246173 457.455390630915 860.0576310436052 447.8680340705539Q856.5545584542425 438.30701640184213 856.5545584542425 426.3491595930401L856.5545584542425 426.3491595930401Q856.5545584542425 414.9707584005236 859.504514318969 405.48875740675993Q862.4281312920461 396.0067564129962 868.1173318883043 389.1849834758162Q873.8065324845627 382.36321053863617 882.0769444624566 378.57041014113065Q890.3210175487011 374.7776097436252 900.9355908833866 374.7776097436252L900.9355908833866 374.7776097436252Q909.469391777774 374.7776097436252 916.0014369068113 377.04275442546873Q922.5598209274978 379.30789910731227 925.7731657087177 381.4150104392598L925.7731657087177 381.4150104392598ZM968.2577979391091 426.5335318345855L968.2577979391091 426.5335318345855Q968.2577979391091 413.4431026848617 972.0505983366145 403.69771277460455Q975.84339873412 393.925983972698 982.1120549466639 387.47295551860884Q988.3543722675583 381.0199270645196 996.5194286788549 377.8065822832997Q1004.658146198502 374.5668986104304 1013.1919470928894 374.5668986104304L1013.1919470928894 374.5668986104304Q1033.1041491797932 374.5668986104304 1043.7450614061281 386.9988554689207Q1054.3596347408134 399.4308123274109 1054.3596347408134 424.8215038773782L1054.3596347408134 424.8215038773782Q1054.3596347408134 425.9804151099493 1054.3596347408134 427.77145974210464Q1054.3596347408134 429.56250437426 1054.1752624992682 431.090160089922L1054.1752624992682 431.090160089922L986.6423443103508 431.090160089922Q987.801255542922 446.4457339214893 995.5712285794784 454.42641809124046Q1003.3412016160348 462.3807633693422 1019.829347788524 462.3807633693422L1019.829347788524 462.3807633693422Q1029.1269765407424 462.3807633693422 1035.474649428234 460.7740909787323Q1041.8486612073752 459.1674185881223 1045.0620059885953 457.6397628724604L1045.0620059885953 457.6397628724604L1047.5378618036334 472.4422199793915Q1044.2981781307642 474.1279090449495 1036.238477286065 476.02430924370225Q1028.178776441366 477.920709442455 1017.9329475897712 477.920709442455L1017.9329475897712 477.920709442455Q1005.0532295732421 477.920709442455 995.6502452544264 474.0488923700015Q986.2735998272601 470.1507364058986 980.215654747911 463.32896346871865Q974.1313707769127 456.5071905315386 971.2077538038355 447.1042062127229Q968.2577979391091 437.7275607855566 968.2577979391091 426.5335318345855ZM987.0374276850911 416.86715859927637L1035.9487494779223 416.86715859927637Q1036.159460611117 404.90930179047433 1029.9961599651706 397.2446843205153Q1023.8328593192242 389.553727958907 1013.007574851344 389.553727958907L1013.007574851344 389.553727958907Q1006.949629771995 389.553727958907 1002.287645950061 391.9242282073479Q997.6520010197767 394.29472845578886 994.4386562385566 398.0875288532943Q991.1989725656874 401.88032925079983 989.407927933532 406.8057019892271Q987.5905444097273 411.7574136193037 987.0374276850911 416.86715859927637L987.0374276850911 416.86715859927637ZM1155.2375897578 462.5651356108877L1155.2375897578 462.5651356108877Q1184.078676113831 462.5651356108877 1184.078676113831 442.83730576552927L1184.078676113831 442.83730576552927Q1184.078676113831 436.7793606861802 1181.4974647321956 432.51246023898653Q1178.9425922422092 428.24555979179286 1174.5966751200674 425.111231685521Q1170.2244191062764 421.97690357924904 1164.6405740766154 419.7117588974055Q1159.0303901553052 417.44661421556197 1152.7880728344107 415.155130642069L1152.7880728344107 415.155130642069Q1145.5712165224907 412.70561371868007 1139.1181880684017 409.5712856124082Q1132.6651596143122 406.43695750613625 1127.9241591174305 402.17005705894263Q1123.1831586205485 397.9031566117489 1120.4439138890168 392.02958377394526Q1117.7046691574851 386.1560109361416 1117.7046691574851 377.8065822832997L1117.7046691574851 377.8065822832997Q1117.7046691574851 360.55460825297956 1129.4518148330924 350.8618961260211Q1141.1989605086997 341.19552289071197 1161.8749904534343 341.19552289071197L1161.8749904534343 341.19552289071197Q1173.8328472622366 341.19552289071197 1183.604576064143 343.7503953806983Q1193.3499659744002 346.331606762334 1197.9065942297366 349.3605793020085L1197.9065942297366 349.3605793020085L1192.0330213919328 364.3474086504851Q1188.055848752882 361.8715528354468 1180.1805201497282 359.50105258700586Q1172.3051915465744 357.1305523385649 1161.8749904534343 357.1305523385649L1161.8749904534343 357.1305523385649Q1156.5808732319165 357.1305523385649 1152.0242449765797 358.2631246794867Q1147.4676167212433 359.3956970204085 1144.0435608068287 361.68718059390136Q1140.6458437840633 363.95232527574495 1138.6440880187133 367.4553978651076Q1136.6686711450125 370.9848093461197 1136.6686711450125 375.72580984300157L1136.6686711450125 375.72580984300157Q1136.6686711450125 381.0199270645196 1138.7494435853107 384.6283552204797Q1140.830216025609 388.2367833764398 1144.6230164231142 390.97602810797156Q1148.41581682062 393.74161173115266 1153.4465451256444 396.0067564129962Q1158.477273430669 398.27190109483973 1164.5352185100182 400.5633846683326L1164.5352185100182 400.5633846683326Q1173.0690194044055 403.96110169109795 1180.1805201497282 407.38515760551263Q1187.2920208950509 410.8092135199273 1192.5071214416212 415.5502140168092Q1197.7222219881912 420.29121451369105 1200.5668222863203 426.82325964272826Q1203.4114225844494 433.35530477176553 1203.4114225844494 442.65293352398385L1203.4114225844494 442.65293352398385Q1203.4114225844494 459.9049075543039 1190.7950934844139 469.2025363065223Q1178.1787643843782 478.5001650587406 1155.2375897578 478.5001650587406L1155.2375897578 478.5001650587406Q1147.4676167212433 478.5001650587406 1140.935571592206 477.44660939276685Q1134.3771875715197 476.41939261844243 1129.267442591547 474.99709246937783Q1124.131358719925 473.5747923203133 1120.4439138890168 471.96811992970333Q1116.7564690581087 470.33510864744403 1114.6493577261613 469.2025363065223L1114.6493577261613 469.2025363065223L1120.154186080874 454.03133471650034Q1124.526442094665 456.5071905315386 1133.4289874721433 459.53616307121314Q1142.3578717412706 462.5651356108877 1155.2375897578 462.5651356108877ZM1242.1032544173354 475.65556476061147L1224.456197012275 475.65556476061147L1224.456197012275 331.5291496554029L1242.1032544173354 328.5001771157284L1242.1032544173354 378.9391546242215Q1247.0286271557625 377.04275442546873 1252.6124721854235 375.98919875949497Q1258.2226561067337 374.9619819851706 1263.7274844614465 374.9619819851706L1263.7274844614465 374.9619819851706Q1275.4746301370537 374.9619819851706 1283.2446031736101 378.2806823329879Q1291.0145762101665 381.5993826808052 1295.6765600321003 387.5783110852062Q1300.3122049623848 393.5309005979579 1302.2086051611377 401.88032925079983Q1304.1050053598901 410.22975790364177 1304.1050053598901 420.29121451369105L1304.1050053598901 420.29121451369105L1304.1050053598901 475.65556476061147L1286.4842868464793 475.65556476061147L1286.4842868464793 424.08401491119656Q1286.4842868464793 414.9707584005236 1285.2463589389604 408.51772994643443Q1284.008431031441 402.06470149234525 1281.163830733312 398.0875288532943Q1278.3192304351828 394.11035621424344 1273.5782299383009 392.31931158208806Q1268.8372294414191 390.50192805828334 1261.8310842626938 390.50192805828334L1261.8310842626938 390.50192805828334Q1258.9864839645647 390.50192805828334 1255.9311725332407 390.8970114330235Q1252.9021999935662 391.2657559161143 1250.1629552620343 391.7398559658025Q1247.3973716388532 392.2139560154907 1245.2375825236072 392.7934116317762Q1243.0514545167116 393.3465283564125 1242.1032544173354 393.74161173115266L1242.1032544173354 393.74161173115266L1242.1032544173354 475.65556476061147ZM1419.7854174838076 426.3491595930401L1419.7854174838076 426.3491595930401Q1419.7854174838076 438.09630526864737 1416.3877004610422 447.5783062624111Q1412.9636445466276 457.06030725617484 1406.8003439006811 463.90841908500414Q1400.6370432547349 470.7301920221842 1392.1032423603474 474.41763685309235Q1383.5694414659602 478.13142057564977 1373.5079848559108 478.13142057564977L1373.5079848559108 478.13142057564977Q1363.472867137511 478.13142057564977 1354.9390662431235 474.41763685309235Q1346.405265348736 470.7301920221842 1340.2419647027898 463.90841908500414Q1334.0786640568435 457.06030725617484 1330.6546081424285 447.5783062624111Q1327.2568911196634 438.09630526864737 1327.2568911196634 426.3491595930401L1327.2568911196634 426.3491595930401Q1327.2568911196634 414.78638615897825 1330.6546081424285 405.19902959861713Q1334.0786640568435 395.63801192990536 1340.2419647027898 388.789900101076Q1346.405265348736 381.968127163896 1354.9390662431235 378.2806823329879Q1363.472867137511 374.5668986104304 1373.5079848559108 374.5668986104304L1373.5079848559108 374.5668986104304Q1383.5694414659602 374.5668986104304 1392.1032423603474 378.2806823329879Q1400.6370432547349 381.968127163896 1406.8003439006811 388.789900101076Q1412.9636445466276 395.63801192990536 1416.3877004610422 405.19902959861713Q1419.7854174838076 414.78638615897825 1419.7854174838076 426.3491595930401ZM1401.4008711125657 426.3491595930401L1401.4008711125657 426.3491595930401Q1401.4008711125657 409.6503022873562 1393.894286992503 399.90491237709904Q1386.4140417640892 390.13318357519256 1373.5079848559108 390.13318357519256L1373.5079848559108 390.13318357519256Q1360.6282668393817 390.13318357519256 1353.1216827193189 399.90491237709904Q1345.6414374909052 409.6503022873562 1345.6414374909052 426.3491595930401L1345.6414374909052 426.3491595930401Q1345.6414374909052 443.048016898724 1353.1216827193189 452.79340680898116Q1360.6282668393817 462.5651356108877 1373.5079848559108 462.5651356108877L1373.5079848559108 462.5651356108877Q1386.4140417640892 462.5651356108877 1393.894286992503 452.79340680898116Q1401.4008711125657 443.048016898724 1401.4008711125657 426.3491595930401ZM1461.1374773732773 346.5159790038794L1461.1374773732773 377.04275442546873L1498.4860257320465 377.04275442546873L1498.4860257320465 391.8452115323999L1461.1374773732773 391.8452115323999L1461.1374773732773 437.35881630246575Q1461.1374773732773 444.73370596428197 1462.270049714199 449.58006202776124Q1463.402622055121 454.42641809124046 1465.6941056286137 457.1656628227722Q1467.9592503104573 459.9049075543039 1471.3833062248718 461.06381878687506Q1474.7810232476372 462.19639112779686 1479.3376515029736 462.19639112779686L1479.3376515029736 462.19639112779686Q1487.2919967810756 462.19639112779686 1492.1383528445547 460.37900760399214Q1496.984708908034 458.5879629718367 1498.8811091067867 457.8241351140058L1498.8811091067867 457.8241351140058L1502.278826129552 472.4422199793915Q1499.6185980729683 473.7591645618587 1492.9811973773337 475.76092032720885Q1486.3437966816991 477.73633720090965 1477.809995787312 477.73633720090965L1477.809995787312 477.73633720090965Q1467.7748780689117 477.73633720090965 1461.2164940482253 475.1814647109233Q1454.684448919188 472.62659222093697 1450.7072762801372 467.4905083493149Q1446.7301036410863 462.3807633693422 1445.097092358827 454.9005181409286Q1443.490419968217 447.3939340208657 1443.490419968217 437.5431885440112L1443.490419968217 437.5431885440112L1443.490419968217 349.5449515435539L1461.1374773732773 346.5159790038794Z " fill="#ff5900" transform="matrix(0.5824485058261915,0,0,0.5824485058261915,0,64.98194489195959)"/></g></svg>